<svg id="exchange" width="500" height="104" viewBox="-218 0 500 104" version="1.1" xmlns="http://www.w3.org/2000/svg"
    xmlns:xlink="http://www.w3.org/1999/xlink">
    <g id="Page-2" stroke="none" stroke-width="1" fill="none" fill-rule="evenodd">
      <g id="GPU_Exchange_brand_guideline_20191115" transform="translate(-808.000000, -357.000000)">
        <g id="Group-85" transform="translate(101.000000, 321.000000)">
          <path
            d="M729.1558,62.9499 L738.1438,62.9499 L738.1438,68.1309 C735.6138,69.3959 732.8438,70.1789 730.6748,70.1789 C723.6868,70.1789 718.3258,64.7569 718.3258,57.5899 C718.3258,50.5419 723.6268,45.1199 730.5538,45.1199 C734.4688,45.1199 738.7458,46.8669 741.8178,49.6989 L747.8428,42.4099 C743.5048,38.5539 736.8798,36.1449 730.6138,36.1449 C717.3018,36.1449 707.3628,45.3619 707.3628,57.5899 C707.3628,69.8779 717.0608,79.1549 729.8908,79.1549 C735.7948,79.1549 742.9028,76.8659 747.4208,73.6719 L747.4208,62.9499 L747.4208,57.2279 L747.4208,54.5159 L729.1558,54.5159 L729.1558,62.9499 Z"
            id="Fill-59" fill="#0068FF"></path>
          <path
            d="M764.7036,58.3727 L771.8116,58.3727 C776.5106,58.3727 779.2216,56.0227 779.2216,51.5657 C779.2216,47.1677 776.5106,44.9397 771.8116,44.9397 L764.7036,44.9397 L764.7036,58.3727 Z M772.3536,36.5067 C783.1376,36.5067 789.3416,41.8077 789.3416,51.2047 C789.3416,61.0827 783.1376,66.8057 772.3536,66.8057 L764.7036,66.8057 L764.7036,78.6717 L753.9816,78.6717 L753.9816,36.5067 L772.3536,36.5067 Z"
            id="Fill-61" fill="#0068FF"></path>
          <path
            d="M831.9849,60.9626 C831.9849,72.1066 824.5759,79.1546 812.7699,79.1546 C800.9029,79.1546 793.3129,72.1066 793.3129,60.9626 L793.3129,36.5066 L804.0359,36.5066 L804.0359,60.9626 C804.0359,66.6856 807.7099,70.1786 812.8299,70.1786 C817.8889,70.1786 821.3229,66.6856 821.3229,60.9626 L821.3229,36.5066 L831.9849,36.5066 L831.9849,60.9626 Z"
            id="Fill-63" fill="#0068FF"></path>
          <polygon id="Fill-65" fill="#1DA4FF"
            points="712.811 90.633 712.811 104.487 734.075 104.487 734.075 109.126 712.811 109.126 712.811 123.583 737.387 123.583 737.387 128.161 707.993 128.161 707.993 85.995 736.605 85.995 736.605 90.633">
          </polygon>
          <polygon id="Fill-67" fill="#1DA4FF"
            points="764.3696 96.4162 769.5506 96.4162 758.9486 111.8372 770.3336 128.1612 764.8516 128.1612 755.8156 115.2102 746.4786 128.1612 741.1786 128.1612 752.7436 111.8372 741.9616 96.4162 747.3836 96.4162 755.8156 108.4642">
          </polygon>
          <path
            d="M799.9663,100.9943 L797.3763,104.3073 C794.9673,102.0173 791.7753,100.6323 787.9193,100.6323 C781.3533,100.6323 776.6543,105.3903 776.6543,112.3183 C776.6543,119.2453 781.3533,124.0643 787.9193,124.0643 C792.0753,124.0643 795.5093,122.6193 797.7373,119.9693 L800.4483,122.8593 C797.6173,126.2933 793.2203,128.3423 787.7383,128.3423 C778.5223,128.3423 772.0173,121.7753 772.0173,112.3183 C772.0173,102.8613 778.5823,96.2963 787.7383,96.2963 C792.8593,96.2353 797.0753,97.9823 799.9663,100.9943"
            id="Fill-69" fill="#1DA4FF"></path>
          <path
            d="M836.1714,108.5841 L836.1714,128.1611 L831.4734,128.1611 L831.4734,109.8491 C831.4734,104.2461 828.0994,100.9341 822.4974,100.9341 C815.7504,100.9941 811.7754,105.7531 811.7754,112.5601 L811.7754,128.1611 L807.0774,128.1611 L807.0774,85.9951 L811.7754,85.9951 L811.7754,103.5241 C813.9434,98.5841 818.2804,96.2961 824.1244,96.2351 C831.7134,96.2351 836.1714,100.9341 836.1714,108.5841"
            id="Fill-71" fill="#1DA4FF"></path>
          <path
            d="M865.3813,117.1974 L865.3813,113.4024 L855.5033,113.4024 C850.2013,113.4024 847.4323,115.0294 847.4323,118.5234 C847.4323,122.0164 850.2623,124.3054 854.7203,124.3054 C860.0813,124.3054 864.1773,121.5944 865.3813,117.1974 L865.3813,117.1974 Z M865.4423,123.2824 C862.9113,126.7154 858.8763,128.4014 853.8163,128.4014 C847.2503,128.4014 843.0333,124.1854 843.0333,118.7044 C843.0333,113.1624 847.4323,109.6684 854.9013,109.6084 L865.3213,109.6084 L865.3213,107.7404 C865.3213,103.1024 862.4303,100.3324 856.8283,100.3324 C853.3353,100.3324 850.0813,101.6564 846.7683,103.9454 L844.7803,100.5114 C848.8773,97.8014 852.3113,96.2354 857.7323,96.2354 C865.5633,96.2354 869.8993,100.3914 869.9593,107.1984 L870.0203,128.1614 L865.4423,128.1614 L865.4423,123.2824 Z"
            id="Fill-73" fill="#1DA4FF"></path>
          <path
            d="M906.8325,108.5841 L906.8325,128.1611 L902.1345,128.1611 L902.1345,109.8491 C902.1345,104.2461 898.7615,100.9341 893.1595,100.9341 C886.8945,100.9941 883.0395,105.0901 882.4975,111.1131 L882.4975,128.1611 L877.7995,128.1611 L877.7995,96.4161 L882.4975,96.4161 L882.4975,103.4031 C884.7265,98.5841 889.0025,96.2961 894.7855,96.2351 C902.3755,96.2351 906.8325,100.9341 906.8325,108.5841"
            id="Fill-75" fill="#1DA4FF"></path>
          <path
            d="M939.3569,111.5959 C939.3569,104.9699 934.8389,100.3319 928.5139,100.3319 C922.1289,100.3319 917.6719,105.0309 917.6119,111.5959 C917.6719,118.1009 922.1289,122.7999 928.5139,122.7999 C934.8389,122.7999 939.3569,118.1009 939.3569,111.5959 L939.3569,111.5959 Z M944.0559,124.8479 C944.0559,134.1239 937.7299,139.9679 928.0929,139.9679 C923.0929,139.9079 918.9369,138.2809 915.0819,135.3889 L917.2509,131.7759 C920.3819,134.3659 923.6949,135.7509 927.9129,135.8109 C934.8389,135.8109 939.3569,131.5949 939.3569,124.9679 L939.3569,120.1499 C937.1279,124.3669 933.0319,126.7759 927.6709,126.7759 C919.1179,126.7759 913.2139,120.4499 913.2139,111.4149 C913.2139,102.5609 919.0569,96.2959 927.5499,96.2359 C932.9719,96.2359 937.0679,98.6449 939.3569,102.8619 L939.3569,96.4159 L944.0559,96.4159 L944.0559,124.8479 Z"
            id="Fill-77" fill="#1DA4FF"></path>
          <path
            d="M976.9409,110.2707 C976.6399,104.1867 972.5439,100.3327 966.3389,100.3327 C960.3159,100.3327 955.9779,104.2467 955.2549,110.2707 L976.9409,110.2707 Z M981.1579,114.1257 L955.2549,114.1257 C956.0979,120.3307 960.6169,124.2457 966.7599,124.2457 C970.6759,124.2457 974.1099,122.8597 976.5799,120.2697 L979.1699,123.0417 C976.1579,126.4147 971.6999,128.3417 966.3999,128.3417 C957.0629,128.3417 950.6179,121.7757 950.6179,112.3187 C950.6179,102.8617 957.1229,96.2957 966.3389,96.2957 C976.5799,96.2357 981.6389,103.3427 981.1579,114.1257 L981.1579,114.1257 Z"
            id="Fill-79" fill="#1DA4FF"></path>
        </g>
      </g>
    </g>
    <svg x="-218" y="0" id="logo" width="218" height="94" viewBox="-15 4 218 94" version="1.1" xmlns="http://www.w3.org/2000/svg"
  xmlns:xlink="http://www.w3.org/1999/xlink">
  <style>
    #logo {
      vertical-align: top;
      margin-top: 0px;
    }

    #Path {
      stroke-dasharray: 198.00885009765625;
      stroke-dashoffset: 0;
      stroke: #0068FF;
      stroke-linejoin: round;
      fill: transparent;
      stroke-width: 20;
      animation: g 1s linear backwards;
    }

    @keyframes g {
      from {
        stroke-dashoffset: 198.00885009765625;
      }

      to {
        stroke-dashoffset: 0;
      }
    }

    #Line {
      stroke-dasharray: 82.72991943359375;
      stroke-dashoffset: 82.72991943359375;
      stroke: #0068FF;
      stroke-width: 20;
      animation: arrow 0.5s linear forwards 1s;
    }

    @keyframes arrow {
      from {
        stroke-dashoffset: 82.72991943359375;
      }

      to {
        stroke-dashoffset: 0;
      }
    }

    #Line-3 {
      stroke-dasharray: 55.33985900878906;
      stroke-dashoffset: 55.33985900878906;
      stroke: #0068FF;
      stroke-width: 20;
      animation: line3 0.5s linear forwards 1.5s;
    }

    @keyframes line3 {
      from {
        stroke-dashoffset: 55.33985900878906;
      }

      to {
        stroke-dashoffset: 0;
      }
    }

    #Line-7 {
      stroke-dasharray: 56.16493606567383;
      stroke-dashoffset: 56.16493606567383;
      stroke: #0068FF;
      stroke-width: 20;
      animation: line7 0.5s linear forwards 1.5s;
    }

    @keyframes line7 {
      from {
        stroke-dashoffset: 56.16493606567383;
      }

      to {
        stroke-dashoffset: 0;
      }
    }

    #Line-4 {
      stroke-dasharray: 59.2304801940918;
      stroke-dashoffset: 59.2304801940918;
      stroke: #1DA4FF;
      stroke-width: 20;
      z-index: -1;
      animation: line7 0.5s linear forwards 2s;
    }

    @keyframes line4 {
      from {
        stroke-dashoffset: 59.2304801940918;
      }

      to {
        stroke-dashoffset: 0;
      }
    }

    #Line-2 {
      stroke-dasharray: 59.686832427978516;
      stroke-dashoffset: 59.686832427978516;
      stroke: #1DA4FF;
      stroke-width: 20;
      animation: line7 0.5s linear forwards 2s;
      z-index: -1;
    }

    @keyframes line2 {
      from {
        stroke-dashoffset: 59.686832427978516;
      }

      to {
        stroke-dashoffset: 0;
      }
    }

    #Fill-59,
    #Fill-61,
    #Fill-63 {
      fill: transparent;
      animation: name1 1s linear forwards 2.5s;
    }

    #Fill-65,
    #Fill-67,
    #Fill-69,
    #Fill-71,
    #Fill-73,
    #Fill-75,
    #Fill-77,
    #Fill-79 {
      fill: transparent;
      animation: name2 1s linear forwards 2.5s;
    }

    @keyframes name1 {
      from {
        fill: transparent;
      }

      to {
        fill: #0068FF;
      }
    }

    @keyframes name2 {
      from {
        fill: transparent;
      }

      to {
        fill: #1DA4FF;
      }
    }
  </style>
  <g id="Page-2" stroke="none" fill="none">
    <g id="GPU_Exchange_brand_guideline_20191115" transform="translate(-602.000000, -354.000000)">

      <path
        d="M663.340202,376.860552 C656.944605,371.339137 648.612251,368 639.5,368 C619.341607,368 603,384.341607 603,404.5 C603,424.658393 619.341607,441 639.5,441 L639.5,441 C659.658393,441 676,424.658393 676,404.5"
        id="Path" stroke="#979797" fill="#D8D8D8"></path>
      <path d="M730.5,400 L699,354.5" id="Line-3" stroke="#979797" stroke-linecap="square"></path>
      <path d="M730.5,406 L699,452.5" id="Line-7" stroke="#979797" stroke-linecap="square"></path>
      <path d="M767,355.25 L733,403.75" id="Line-4" stroke="#979797" stroke-linecap="square"></path>
      <path d="M648.5,403.4437 L722.2299,403.4437" id="Line" stroke="#979797" stroke-linecap="square"></path>
      <path d="M767,452.52815 L733,403.47185" id="Line-2" stroke="#979797" stroke-linecap="square"></path>
      <use id="use" xlink:href="#Line-3" />
      <use id="use" xlink:href="#Line-7" />
    </g>
  </g>
</svg>
  </svg>